<mxfile host="app.diagrams.net" modified="2023-12-18T02:04:37.018Z" agent="Mozilla/5.0 (Windows NT 10.0; Win64; x64) AppleWebKit/537.36 (KHTML, like Gecko) Chrome/119.0.0.0 Safari/537.36 OPR/105.0.0.0" etag="gZpMA9IJ_-o_CSafJ81X" version="22.1.11" type="device">
  <diagram name="Страница — 1" id="AMzAyrlBtQy5KLMJSBYX">
    <mxGraphModel dx="824" dy="589" grid="1" gridSize="10" guides="1" tooltips="1" connect="1" arrows="1" fold="1" page="1" pageScale="1" pageWidth="827" pageHeight="1169" math="0" shadow="0">
      <root>
        <mxCell id="0" />
        <mxCell id="1" parent="0" />
        <mxCell id="YLSSxmIHSR3XR81bQFb4-7" style="edgeStyle=orthogonalEdgeStyle;rounded=0;orthogonalLoop=1;jettySize=auto;html=1;exitX=0.5;exitY=1;exitDx=0;exitDy=0;entryX=0.5;entryY=0;entryDx=0;entryDy=0;" edge="1" parent="1" source="YLSSxmIHSR3XR81bQFb4-1" target="YLSSxmIHSR3XR81bQFb4-2">
          <mxGeometry relative="1" as="geometry" />
        </mxCell>
        <mxCell id="YLSSxmIHSR3XR81bQFb4-1" value="&lt;font style=&quot;font-size: 14px;&quot;&gt;sortprost&lt;br&gt;конец&lt;/font&gt;" style="ellipse;whiteSpace=wrap;html=1;" vertex="1" parent="1">
          <mxGeometry x="80" y="40" width="120" height="40" as="geometry" />
        </mxCell>
        <mxCell id="YLSSxmIHSR3XR81bQFb4-8" style="edgeStyle=orthogonalEdgeStyle;rounded=0;orthogonalLoop=1;jettySize=auto;html=1;exitX=0.5;exitY=1;exitDx=0;exitDy=0;entryX=0.5;entryY=0;entryDx=0;entryDy=0;" edge="1" parent="1" source="YLSSxmIHSR3XR81bQFb4-2" target="YLSSxmIHSR3XR81bQFb4-5">
          <mxGeometry relative="1" as="geometry" />
        </mxCell>
        <mxCell id="YLSSxmIHSR3XR81bQFb4-14" style="edgeStyle=orthogonalEdgeStyle;rounded=0;orthogonalLoop=1;jettySize=auto;html=1;exitX=1;exitY=0.5;exitDx=0;exitDy=0;" edge="1" parent="1" source="YLSSxmIHSR3XR81bQFb4-2">
          <mxGeometry relative="1" as="geometry">
            <mxPoint x="140" y="340" as="targetPoint" />
            <Array as="points">
              <mxPoint x="230" y="125" />
              <mxPoint x="230" y="340" />
            </Array>
          </mxGeometry>
        </mxCell>
        <mxCell id="YLSSxmIHSR3XR81bQFb4-2" value="p &amp;lt; q" style="rhombus;whiteSpace=wrap;html=1;" vertex="1" parent="1">
          <mxGeometry x="80" y="100" width="120" height="50" as="geometry" />
        </mxCell>
        <mxCell id="YLSSxmIHSR3XR81bQFb4-11" style="edgeStyle=orthogonalEdgeStyle;rounded=0;orthogonalLoop=1;jettySize=auto;html=1;exitX=0.5;exitY=1;exitDx=0;exitDy=0;entryX=0.5;entryY=0;entryDx=0;entryDy=0;" edge="1" parent="1" source="YLSSxmIHSR3XR81bQFb4-3" target="YLSSxmIHSR3XR81bQFb4-6">
          <mxGeometry relative="1" as="geometry" />
        </mxCell>
        <mxCell id="YLSSxmIHSR3XR81bQFb4-3" value="&lt;font style=&quot;font-size: 14px;&quot;&gt;sliynie(a, p, q)&lt;/font&gt;" style="shape=process;whiteSpace=wrap;html=1;backgroundOutline=1;" vertex="1" parent="1">
          <mxGeometry x="80" y="290" width="120" height="40" as="geometry" />
        </mxCell>
        <mxCell id="YLSSxmIHSR3XR81bQFb4-10" style="edgeStyle=orthogonalEdgeStyle;rounded=0;orthogonalLoop=1;jettySize=auto;html=1;exitX=0.5;exitY=1;exitDx=0;exitDy=0;entryX=0.5;entryY=0;entryDx=0;entryDy=0;" edge="1" parent="1" source="YLSSxmIHSR3XR81bQFb4-4" target="YLSSxmIHSR3XR81bQFb4-3">
          <mxGeometry relative="1" as="geometry" />
        </mxCell>
        <mxCell id="YLSSxmIHSR3XR81bQFb4-4" value="sortprost(a, (p + q) div 2 + 1, q)" style="shape=process;whiteSpace=wrap;html=1;backgroundOutline=1;" vertex="1" parent="1">
          <mxGeometry x="80" y="230" width="120" height="40" as="geometry" />
        </mxCell>
        <mxCell id="YLSSxmIHSR3XR81bQFb4-9" style="edgeStyle=orthogonalEdgeStyle;rounded=0;orthogonalLoop=1;jettySize=auto;html=1;exitX=0.5;exitY=1;exitDx=0;exitDy=0;entryX=0.5;entryY=0;entryDx=0;entryDy=0;" edge="1" parent="1" source="YLSSxmIHSR3XR81bQFb4-5" target="YLSSxmIHSR3XR81bQFb4-4">
          <mxGeometry relative="1" as="geometry" />
        </mxCell>
        <mxCell id="YLSSxmIHSR3XR81bQFb4-5" value="sortprost(a, p, (p + q) div 2)" style="shape=process;whiteSpace=wrap;html=1;backgroundOutline=1;" vertex="1" parent="1">
          <mxGeometry x="80" y="170" width="120" height="40" as="geometry" />
        </mxCell>
        <mxCell id="YLSSxmIHSR3XR81bQFb4-6" value="&lt;font style=&quot;font-size: 14px;&quot;&gt;конец&lt;/font&gt;" style="ellipse;whiteSpace=wrap;html=1;" vertex="1" parent="1">
          <mxGeometry x="80" y="360" width="120" height="40" as="geometry" />
        </mxCell>
        <mxCell id="YLSSxmIHSR3XR81bQFb4-12" value="да" style="text;html=1;strokeColor=none;fillColor=none;align=center;verticalAlign=middle;whiteSpace=wrap;rounded=0;" vertex="1" parent="1">
          <mxGeometry x="130" y="140" width="60" height="30" as="geometry" />
        </mxCell>
        <mxCell id="YLSSxmIHSR3XR81bQFb4-13" value="нет" style="text;html=1;strokeColor=none;fillColor=none;align=center;verticalAlign=middle;whiteSpace=wrap;rounded=0;" vertex="1" parent="1">
          <mxGeometry x="180" y="100" width="60" height="30" as="geometry" />
        </mxCell>
      </root>
    </mxGraphModel>
  </diagram>
</mxfile>
